<svg version="1" xmlns="http://www.w3.org/2000/svg" width="1333.333" height="1333.333" viewBox="0 0 1000.000000 1000.000000"><path d="M674.5 127.5c-20.7 5.2-47 25.6-70 54.2-22.2 27.7-45.6 68.4-58 101.3-1.6 4.1-3 7.7-3.1 7.8-.1.2-4-.6-8.6-1.8-12.8-3.4-40-4-56.7-1.1-6.8 1.2-12.7 2.1-13.2 2.1s-4.3-6.9-8.5-15.3c-49.6-99.1-93.7-146.1-137.4-146.1-10.3 0-21.1 2.3-24.4 5.2-5.1 4.5-12.5 26.8-16.5 50.2-4.3 24.6-5.5 40.1-5.5 72.5 0 41.4 3.4 71.7 11.8 106.1l3.4 13.6-2.9 8.2c-4.3 12.5-6.1 22-6.1 33.6-.1 17 4.4 29.6 14.5 40.7 4 4.3 4.8 5.8 4.3 7.8-1 3.8-10.8 13.7-17.5 17.5-3.3 1.9-6.1 3.8-6.1 4.2 0 1.2 12.4 4.8 18.8 5.4l6.3.7-5.1 1.8c-28.1 9.9-50 49-50 89.3v7.9l3.9-5.9c2.1-3.2 5.6-7.9 7.8-10.4l4-4.5.5 17c1.3 40.7 13.9 72.1 38.7 96.5 9.7 9.5 22 18.7 20.7 15.4-1.1-2.9-4.6-19.6-4.6-22.2 0-2 .7-1.5 4.2 3 13.5 17.2 28.8 31.7 67.8 64.1 41 34.2 56.9 48.8 70.1 64.7 7.1 8.4 14.2 19.9 17.1 27.5l2.3 6 1.7-7c.9-3.9 1.7-8.1 1.7-9.5.3-5.7 1.7-5.2 5.8 1.7 6.7 11.2 13.2 24.8 16.2 33.8l2.8 8.5 2.8-7.8c9.7-27.3 26.5-55.2 49.9-82.7 6.2-7.2 49.6-54.5 50.1-54.5.1 0 .3 3.9.4 8.7 0 4.9.4 10.3.7 12.1l.7 3.4 3.8-7.2c7.1-13.1 13.1-20.1 42.9-50.5 33.3-34.1 41.7-45.3 53.1-71.3 1.3-3 1.4-2.6 1.1 7.4-.2 5.9-.1 13.2.3 16.3.8 6.5.6 6.8 7.7-9.7 6.7-15.6 12.5-33.2 15.3-46.1l2.2-10.6 1.7 7.5c.9 4.1 2 9.3 2.4 11.5l.9 4 5-10c9.1-18.1 9.8-21.2 9.8-43v-19l-3.4-6.5c-4.9-9.4-8-13.7-15.4-20.9-11.3-11-26.4-19.3-40.4-22.2-3.5-.7-6.3-1.6-6.3-1.9 0-.3 2.9-1.6 6.5-2.8 3.6-1.3 7.5-3.2 8.7-4.2l2.2-1.7-3-1.6c-3.8-2-12.7-9.9-15.5-13.8l-2.1-2.9 3.5-5.3c6.7-10.2 11.4-21 14.2-32.7 2-8.6 1.9-25.3-.1-33.5l-1.6-6.4 4-10.3c11.2-28.8 18.4-59.4 21.3-90.1 1.7-18.6.7-57.5-2-74.2-3.5-21.5-9.1-43-16.2-61.4-2.9-7.8-3.1-8-7.7-9.6-6.6-2.3-20.3-2.8-27.7-1zm21.6 41.1c15.5 34.1 16.8 93.2 3.3 143.2-4.7 17.3-18.7 55.2-20 53.9-.2-.2.6-4.1 1.7-8.8 7-29 17.5-82.6 16.5-83.7-.2-.1-2.5 3.5-5.2 8.2-2.6 4.7-4.9 8.4-5.1 8.3-.2-.2.6-3 1.7-6.3 5.2-15 13.1-50.6 11.6-52.2-.3-.2-1 .7-1.7 2-1.8 3.4-9 13-9.4 12.6-.3-.2.4-3.1 1.4-6.4 1.1-3.2 2.7-10.6 3.6-16.3 2.3-13.6 1.6-38.2-1.4-52-2.5-11-2.4-10.4-1-9.5.6.4 2.4 3.5 4 7zm-43.7 13.6c-.4.7-3.8 5.6-7.5 10.8-21.8 31-32.1 56.7-35.4 89l-.5 5.5 6.4-12.1c7.7-14.6 14.2-24.4 24.1-36.3 8.9-10.8 10.7-12.1 6.5-5-11.3 19.5-19 46-19 65.5 0 11.5.5 11.5 8 .1 3.7-5.6 7.8-11.1 9-12.2l2.3-2-.6 2.5c-2.8 11.6-4 23-4 37.5 0 17.1 1.3 26 5.8 38.4 1.3 3.6 2.3 6.6 2.2 6.8-.5.4-16.3-15.3-25.1-25-4.9-5.3-8.6-10-8.3-10.3.6-.7 9.3 2 14.2 4.3 5 2.3-6.9-8.3-13.3-12-3.1-1.7-5-3.3-4.4-3.5 1.4-.4 10.1 2.3 15.7 5l4 1.9-5-4.6c-7.6-7-18.7-13.5-29.3-17.2-5.4-1.8-10.6-3.3-11.6-3.3-1.7 0-1.8-.6-1.3-6 1.1-10.2 4.4-24.9 8.3-36.5 10.2-30.6 27.1-56.3 49.1-74.5 9.8-8.2 11-9 9.7-6.8zM300.7 195c.2 14.1 3.1 32.2 7.8 49.3 1.8 6.7 3.2 12.3 3.1 12.5-.2.1-2.7-4.3-5.7-9.8l-5.4-10-.8 3.8c-.5 2-.6 17-.4 33.2.5 29.8 1.8 45.2 5.7 66.9 1.1 5.8 1.8 10.7 1.6 10.8-.7.7-6.7-22.4-9.1-34.9-4.6-23.5-5.8-36.8-5.9-62.3 0-24.2.9-35.3 4.4-53.5 1.7-9.2 3.8-18 4.3-18 .1 0 .3 5.4.4 12zm72.6 3.5c14.5 17.2 28.7 46.2 33.8 69 1.1 5 1.4 5.6 2 3.5.4-1.4.8-5.4.8-9 .2-6.1.3-6.4 1.7-4.5 4.5 5.8 16.4 33.6 16.4 38.4 0 .6-1.7 1.1-3.7 1.1-8.2 0-26.2 6.2-32.7 11.2-1.7 1.4-1.2 1.4 4.5.2 3.5-.8 7.8-1.3 9.4-1.3 2.5 0 1.9.4-3.2 2.4-6.7 2.5-15.7 7.5-15 8.2.3.2 2.4-.1 4.8-.6 2.4-.6 6.7-1 9.4-1h5l-5.5 5c-9.2 8.4-41.2 35.7-45.8 39l-4.2 3.1 4.5-9.3c2.5-5.1 5.3-11.7 6.2-14.6 1.6-5.2 1.7-5.3 5.6-5.3h4l-.7-4.3c-1.2-7.5-4.6-16.4-9.5-24.6l-4.8-8 5.7 2.9c3.1 1.6 8.3 5.2 11.4 8.1 5.5 5 5.7 5.1 5.1 2.3-2.7-11.8-9-25.3-17.5-37.2-3.2-4.5-5.6-8.2-5.2-8.2.4 0 3.2 1.7 6.2 3.7 6.4 4.2 15.2 12.8 19.9 19.3l3.3 4.5-.7-3.5c-2.1-10-9.9-30.3-17.5-45.7-4.7-9.4-7.9-16.8-7.1-16.3 2.6 1.4 13.5 13.1 18.5 20 2.7 3.6 7.3 10.7 10.4 15.9 3.1 5.1 5.8 8.9 6 8.3.5-1.5-4.3-19.7-8.3-31.1-4.5-12.9-10.8-27.1-19.1-43.1-7.1-13.7-6.9-13.7 5.9 1.5zm74 139.6c15.1 4.2 24.7 29.8 24.7 66v13.4l-3.5-6.8c-10.5-20.4-23.6-31.6-41.4-35.3-4.1-.8-9.9-1.4-13-1.2l-5.6.3 4 2.4c3.3 2 3.7 2.5 2 2.8-12.5 2.3-19.2 3.9-25.2 6.3-4 1.5-7.3 2.4-7.3 2 0-2 10.3-16.1 15.2-20.6 8.5-8.1 19-12.4 29.7-12.4 5 0 5.4-.1 4-1.6-.9-.8-4.5-2.6-8-3.9-6.3-2.3-6.4-2.3-3.6-3.4 1.6-.6 5.8-1.1 9.5-1.1 6.7 0 13 2.2 19 6.6l2.2 1.7-2-4.9c-1.2-2.7-3.3-6.4-4.6-8.1-2.7-3.6-2.2-3.9 3.9-2.2zm111.2 4.8c-5.5 3.1-9.7 7.1-6.1 5.8 9.9-3.7 18.9-3.3 28.5 1.4 5.6 2.7 9.3 5.9 24.6 21.5 9.9 10.2 20 19.8 22.5 21.4 5.6 3.8 3.9 3.8-9.3.5-5.4-1.4-10-2.5-10.3-2.5-2.2 0 16.2 20.4 26.3 29.2 4.6 3.9 8.1 7.3 7.9 7.6-.3.2-4.2-.6-8.7-1.7-4.5-1.2-8.4-1.9-8.6-1.7-1.1 1.1 29 32.1 35.1 36.1l2.7 1.8-7.3 3.5-7.3 3.6 8.8 1.2c13 1.9 13.6 3 2 3.7-12.4.9-24.3 3.7-33.9 8.1-4.1 1.9-7.4 3.3-7.4 3.2 0-.2 4.3-4 9.5-8.6s9.3-8.5 9.1-8.7c-.7-.7-17 3.8-25.6 7.2-4.7 1.8-14.7 6-22.2 9.4-7.5 3.3-16.4 6.8-19.7 7.7-5.7 1.6-6.3 1.6-10.8-.1-5.6-2.2-12.9-8.7-16.2-14.5l-2.3-4.1 2.9.8c1.5.4 7.1.8 12.3.8 8.1 0 10.3-.4 15-2.6 7.6-3.6 14.7-9.5 19.5-16.2 4-5.5 4-5.6 8-4.9 6.5 1.1 17.7.6 21.4-1l3.3-1.5-7.1-1.8c-7.7-1.9-9.1-2.8-6.4-4.4 1-.5 1.6-1.1 1.3-1.4-2.4-2.1-30.8-14.2-37.2-15.9-18.4-4.6-32.2 1.3-38.8 16.7-2.7 6.2-4.4 17.7-3.6 24.2.3 2.9.4 5.3.1 5.3-1.2 0-4.8-8.8-6.1-14.9-1.9-9.1-1.7-16.4.6-25.6 2.2-8.6 5.4-14.7 10.9-20.8 3.9-4.4 12.8-11.7 14.1-11.7.5 0-.2 2.4-1.5 5.2-1.3 2.9-2.7 6.6-3.1 8.3l-.7 3 3.4-3.2c10.6-10 27-11.7 42.7-4.3 3.4 1.6 5.9 2.4 5.5 1.7-.4-.7-3.3-4.8-6.4-9.2-6.9-9.7-12.4-14.9-19.2-18.1-5.4-2.4-5.2-2.7 1.8-4.2l4-.8-4-1.5c-5.8-2.1-21.6-1.8-28.5.5-7.1 2.4-15 6.8-21.7 12.3-2.9 2.4-5.3 4.1-5.3 3.9 0-2.5 7.1-20.9 10.7-27.8 8.8-16.6 18.8-24.8 30.2-24.8h5.6l-5 2.9zM694 404.5c-1.3 6.2-6.1 16.4-8.9 18.9-1.9 1.7-1.9 1.7-.2-4.1 1-3.2 2.1-7.3 2.5-9.2.6-3.1.5-3.3-1.8-2.7-1.3.3-3.2.9-4.1 1.2-1.4.6-1.2-.1.7-3.2 1.3-2.1 2.8-4.4 3.2-5.1.5-1-1.2-1.1-7.4-.6-4.4.3-8 .3-8 0s3.5-1.7 7.8-3.2c4.2-1.4 9.7-3.7 12.2-5l4.5-2.3.3 5c.2 2.7-.2 7.4-.8 10.3zm-256.7-4.6c5.9 3.8 11 10.8 13.8 19.1 4.9 14.3 3.2 44-3.2 57.6l-2.3 4.9-.7-14.5c-.4-8-1.4-16.9-2.2-19.8-3.4-12-11.1-20.9-19.9-23.3-5.2-1.4-11.6-.6-27.2 3.3-12.7 3.2-26.6 4.2-28.6 2.2-.8-.8-.1-1.3 2.9-1.8 2.2-.3 8.1-2.6 13.2-5.1 5.1-2.5 10-4.5 10.8-4.6.9 0-.6-.8-3.3-1.8l-4.9-1.7 4.4-1.6c24-9 39-8.3 48 1.9 2.7 3.1 3 3.3 2.4 1.2-1.1-3.6-4.4-10-6.9-13.4-4.9-6.6-3.9-7.3 3.7-2.6zm-134.1 15.8c3.5 2.8 8.3 6.2 10.8 7.7l4.5 2.8-5.3-.7c-2.9-.3-7.8-1.7-10.7-3-6.2-2.7-6.5-2.4-6.6 5.3 0 2.6-.4 5.6-.8 6.7-1.4 3.5-3.4-8.4-2.9-17.2.5-9.3 1.4-11.4 3.4-8.5.8 1.1 4.2 4.2 7.6 6.9zM412 439.5c0 8.6 2 14.8 4.4 13.9 2.2-.9 3.8-7.7 3.4-14.6-.2-3.2-.1-5.8.2-5.8.3 0 1.9.9 3.7 1.9 3.7 2.3 7.5 8.6 9.7 16 2.2 7.4 2.1 9.4-.3 8.6-1-.3-4.8.4-8.4 1.6-8.5 2.8-14.3 2.1-19.3-2.3-4.8-4.3-7.1-7.7-9.8-15l-2.4-6.4 7.6-2.7c11.5-3.9 11.2-4 11.2 4.8zm166.4.8c4.2 2 7.6 4 7.6 4.5 0 3-12.1 15.6-17.7 18.5-1.8 1-6.4 1.6-12.3 1.8l-9.4.3-1.2-2.9c-1.6-3.8-1.8-12.9-.3-15.8 1.4-2.7 7-8.7 8.1-8.7.4 0 .8 3 .8 6.7 0 7.2 1.6 11.8 4 11.8 2.3 0 4.2-7.2 3.8-14.4l-.4-6.3 4.7.4c2.6.3 8.1 2.1 12.3 4.1zm-198.2.9c3.6 1.1 4.3 1.9 8 9.1 4.6 9.3 11.2 16.8 17.4 19.7 6.1 3 15.1 2.9 21.5-.3l4.8-2.3 1.3 3c.7 1.7 1.3 6.6 1.3 10.8 0 6.6-.3 8-2.3 10.1-6.6 7-23.9 10.6-34.3 7.2l-5.4-1.8 4.8-1.3c2.7-.7 5.1-1.4 5.3-1.7.2-.2-1.7-1.2-4.3-2.2-6.8-2.6-12.9-7-15.9-11.5-2.4-3.6-5.8-12.9-5-13.7.2-.2 2.1.6 4.2 1.9 3.9 2.3 3.9 1.9-.2-3.7-2.6-3.7-4.4-8.8-5.9-17.8-1.2-7.3-1.2-7.3 4.7-5.5zM513 490.5c9.1 19.4 12.4 34.2 12.5 56.2v16.1l4.6-.5c2.6-.3 6.3 0 8.4.7 5.3 1.8 11.8 8.6 13.9 14.5 8.4 24.7-5.9 47.8-30.6 49.3-6.5.4-8.4.1-12.2-1.8-2.5-1.2-5.5-3.5-6.7-5.1-2.6-3.8-3.7-10.7-1.8-11.3 10.4-3 17.6-7.6 21.7-13.6 4.2-6.2 1.9-17.9-5.5-27.8-4.6-6.1-6.9-6.7-25.4-6.7h-16.7l2.6-4.5c1.4-2.5 4.3-7.3 6.4-10.8 2.1-3.4 3.8-6.4 3.8-6.6 0-.8-4.6.7-10.7 3.5-3.5 1.5-6.3 2.6-6.3 2.3 0-1.1 4.6-9.3 8.7-15.8 2.4-3.7 4.2-7 3.9-7.3-.4-.4-8.7 1.8-12.4 3.4-1.9.8 2.2-6.3 8.5-14.6l5.2-6.9-3.7 1c-2 .6-4.9 1.7-6.4 2.4-1.6.8-2.8 1.3-2.8 1.1 0-3.3 9.9-26.9 11.8-28 .5-.4 1.5.6 2.1 2.1.7 1.5 2.9 5.4 5 8.5l3.8 5.8 5.4-9 5.4-9.1 1.9 2.3c1 1.2 3.6 5.8 5.6 10.2zm173.6 7.6c4.3.6 11.4 2.2 15.9 3.6l8 2.6-10.5 2.2c-8.2 1.8-20.5 5.6-21.7 6.8-.1.1 4.9.2 11 .3 16.4.1 26.5 4.2 36.4 14.6 4.4 4.7 11.3 16 11.3 18.5 0 .5-4.4-1.3-9.7-3.9-5.4-2.6-10.3-4.7-11-4.8-.7 0-.4 1.4.8 4 4.5 9.3 6 20.8 3.8 29.6-1.3 5.1-2.5 5.6-3.4 1.5-.8-3.6-6.4-13.1-10.7-17.9l-3.1-3.7.7 3.5c3.2 15.1 3 26.2-.9 41.7-2.6 10.1-7.6 22.2-12.2 29.6l-3 4.9-.7-4.4c-.9-6.2-5.8-21.8-6.8-21.8-.4 0-.8.8-.8 1.7 0 4-7.6 24.2-14 37-5.9 12-18.6 32.5-24.9 40.3l-2.1 2.5v-9.1c0-5-.3-11.2-.6-13.7l-.7-4.6-4.1 6.2c-2.4 3.6-20.9 23.2-44.6 47.2-57.5 58.2-74.2 78.4-84.5 102.1l-3.3 7.5-2.2-6.8c-3.4-10.4-12.2-28.4-18.1-36.9-2.9-4.2-5.5-7.2-5.6-6.7-.2.6 0 3.7.6 6.9.5 3.2.8 6 .7 6.1-.1.1-2.5-2.8-5.3-6.5-6.8-8.9-19.8-21.4-40.3-38.6-56.2-47.5-76.5-71-87.5-101.8l-3.2-9-.6 7c-.7 7.4.6 27.6 2.4 37.6.6 3.2.8 6 .6 6.2-.5.5-8.7-9.7-13.5-16.7-4.5-6.7-12.5-23.2-15.5-32-3.1-8.9-7.1-24.8-8.6-33.9-2.4-15.3-2.3-14.7-3.1-12.4-1.7 4.3-6.9 30.1-7.6 37.3l-.7 7.4-2-3.8c-5.8-11.4-9.3-29.9-8.4-44.4.4-5.3 1-10.7 1.3-12 1.4-4.8-1.8-1-5.2 6.3l-3.3 7.1v-5c-.1-7.6 2.5-18.1 5.9-24.1l3-5.4-2.7.6c-1.6.3-5.4 1.7-8.5 2.9-3.2 1.2-5.8 2-5.8 1.6 0-1.8 14-18.8 20.7-25.1 19.1-17.8 40.9-24.5 62.3-19.1 4.6 1.1 8.6 1.9 8.9 1.6.3-.3-.7-3-2.2-6-1.5-3-2.3-5.5-1.9-5.5 1.6 0 14.7 8.2 20.6 12.9 6.9 5.6 17.7 16.6 22.3 22.6 6.8 9 17.7 31.4 16.1 33-.2.3-2.3-.4-4.5-1.5-14.4-6.9-43-3.2-59 7.7-.6.4 3.9.8 10 .8 13 .1 20.7 1.8 31.5 7.1 7 3.4 22.2 14.6 22.2 16.3 0 .4-2.9 1.1-6.4 1.5-7.2.7-16.3 3.6-21 6.6l-3.1 2h2.6c3.7 0 13.6 5.2 19.5 10.3 15.2 12.9 24.9 27.5 39.3 58.7.9 2 1-.6.6-12-.3-8-.8-16.8-1.1-19.5l-.5-5 2.7 5c7.8 14.4 20.3 48.3 24.3 65.5 1.2 5.2 2.5 10.8 2.9 12.5.6 2.2 1.4-1.5 3-14.5 1.3-9.6 2.6-20.9 2.9-25 .8-9.4 1.3-8.1 5.3 12.5 4.1 21.1 13.7 63.4 15.5 68.2 1.3 3.7 1.4 3.7 1.4-5.3.2-22.7 5.4-56.2 11.4-72.9l1.5-4 .6 5c1 7.2 5.1 23.1 7.7 30l2.3 6 1.3-9.5c2.2-16.4 6.9-33 13.3-47.5l2.2-5 2.4 8.8c2.5 9.3 5.3 15.7 5.4 12.4 0-4.1 11.5-35.9 17.1-47.6 12.1-25.3 27.7-44.1 42.9-51.4 7.1-3.4 7.2-3.5 4.2-4.2-3.4-.7-16.1 1.4-26.2 4.4l-6.5 2 5.8-5.4c9.7-8.9 23.4-15 37.2-16.5 5.9-.6 6-.7 3-1.9-10.7-4.5-26.8-5.6-37.1-2.6-3.3.9-9.2 3.4-13.2 5.6-8.3 4.4-8.2 4.4-8.2 2.6 0-2.4-6-9.7-9.6-11.9l-3.4-2 3.7-5.2c11.1-15.3 26.9-31 40.1-39.8 6.8-4.5 8-4.7 5.4-1.1-2.7 4-8.8 15.1-10.7 19.7l-1.6 3.8 7.3-5.9c10.4-8.6 15.6-11.8 27.1-17.3 19.8-9.5 38.6-12.7 58.3-9.9zm-221.1 70.1c.2.2-.5 2.8-1.5 5.8-3.8 10.8-1.8 21.6 4.9 27.2 1.7 1.5 5.7 3.5 8.9 4.4 9.7 2.8 9.2 2.4 7.7 6.8-3.2 9.2-10.7 13.1-24.2 12.4-10-.5-15-2.5-20.7-8.4-7.8-8-10.6-21-7.2-32.8 2-6.7 8-13.4 13.6-15.3 3-1.1 17.5-1.1 18.5-.1zm42.3 1.5c1.1 1 2.3 2.7 2.6 3.9.6 1.9.4 2-7.1 1.2-4.3-.4-12.1-1.1-17.3-1.6l-9.5-.8 4.5-1.3c11.6-3.4 23.7-4 26.8-1.4zm1.2 14.2c-1.5 2.8-1.2 8.4.5 10.7 2.1 2.7 1.9 3.4-1 3.4-5.5 0-9.6-8-6.2-12.2 1.4-1.8 4.7-3.7 6.5-3.8.9 0 1 .5.2 1.9zm-25.5.8c-1.8 4.1-1.7 7.4.4 10.8l2 3.5h-2.5c-3.1 0-8.4-5-8.4-8 0-1.2 1.3-3.5 2.9-5.1 3.3-3.3 6.8-4 5.6-1.2zm22.5 49.2c0 2.9-5.6 7.9-10.1 9.1-4.3 1.2-9.8.5-12.5-1.5-1.6-1.1-1.3-1.3 2.6-2l4.4-.7-3.9-2.2-4-2.1 10.2-.6c5.7-.3 10.6-.8 10.9-1.2 1.3-1.3 2.4-.7 2.4 1.2z"/></svg>